<svg width="20" height="20" viewBox="0 0 20 20" fill="none" xmlns="http://www.w3.org/2000/svg">
<path fill-rule="evenodd" clip-rule="evenodd" d="M10 18.2505C14.5563 18.2505 18.25 14.5568 18.25 10.0005C18.25 5.44414 14.5563 1.75049 10 1.75049C5.44365 1.75049 1.75 5.44414 1.75 10.0005C1.75 14.5568 5.44365 18.2505 10 18.2505ZM10 20.0005C15.5228 20.0005 20 15.5233 20 10.0005C20 4.47764 15.5228 0.000488281 10 0.000488281C4.47715 0.000488281 0 4.47764 0 10.0005C0 15.5233 4.47715 20.0005 10 20.0005Z" fill="url(#paint0_linear_175_28)"/>
<path fill-rule="evenodd" clip-rule="evenodd" d="M12.2701 6.46957C12.5631 6.1768 13.038 6.177 13.3308 6.47001C14.2078 7.34771 14.7502 8.56957 14.7502 9.91645C14.7502 12.5713 12.6381 14.7501 10.0002 14.7501C7.36231 14.7501 5.25023 12.5713 5.25023 9.91645C5.25023 9.50224 5.58602 9.16645 6.00023 9.16645C6.41444 9.16645 6.75023 9.50224 6.75023 9.91645C6.75023 11.7723 8.21987 13.2501 10.0002 13.2501C11.7806 13.2501 13.2502 11.7723 13.2502 9.91645C13.2502 8.9786 12.8738 8.13485 12.2697 7.53023C11.9769 7.23722 11.9771 6.76235 12.2701 6.46957Z" fill="url(#paint1_linear_175_28)"/>
<path fill-rule="evenodd" clip-rule="evenodd" d="M5.82877 7.61187C6.06392 7.59106 6.29514 7.68218 6.45288 7.85781L8.44701 10.0782C8.72378 10.3864 8.69833 10.8606 8.39015 11.1373C8.08198 11.4141 7.60779 11.3887 7.33102 11.0805L6.00506 9.60408L4.95898 11.2904C4.74063 11.6424 4.27828 11.7507 3.92629 11.5324C3.5743 11.314 3.46597 10.8517 3.68432 10.4997L5.25755 7.96359C5.38199 7.76298 5.59362 7.63268 5.82877 7.61187Z" fill="url(#paint2_linear_175_28)"/>
<defs>
<linearGradient id="paint0_linear_175_28" x1="0" y1="0.000488281" x2="20.7895" y2="20.0005" gradientUnits="userSpaceOnUse">
<stop stop-color="#8E3BF7"/>
<stop offset="1" stop-color="#3BE4F2"/>
</linearGradient>
<linearGradient id="paint1_linear_175_28" x1="0" y1="0.000488281" x2="20.7895" y2="20.0005" gradientUnits="userSpaceOnUse">
<stop stop-color="#8E3BF7"/>
<stop offset="1" stop-color="#3BE4F2"/>
</linearGradient>
<linearGradient id="paint2_linear_175_28" x1="0" y1="0.000488281" x2="20.7895" y2="20.0005" gradientUnits="userSpaceOnUse">
<stop stop-color="#8E3BF7"/>
<stop offset="1" stop-color="#3BE4F2"/>
</linearGradient>
</defs>
</svg>