<svg width="37" height="37" viewBox="0 0 37 37" fill="none" xmlns="http://www.w3.org/2000/svg">
<path d="M2.05817 1.97394C3.7298 0.302306 6.44006 0.302306 8.11169 1.97394L18.7496 12.6118L29.3874 1.97394C31.0591 0.302306 33.7693 0.302306 35.441 1.97394C37.1126 3.64558 37.1126 6.35583 35.441 8.02746L24.8031 18.6653L35.1117 28.9739C36.7833 30.6456 36.7833 33.3558 35.1117 35.0275C33.4401 36.6991 30.7298 36.6991 29.0582 35.0275L18.7496 24.7189L8.44096 35.0275C6.76933 36.6991 4.05907 36.6991 2.38744 35.0275C0.715804 33.3558 0.715804 30.6456 2.38744 28.9739L12.696 18.6653L2.05817 8.02746C0.386535 6.35583 0.386535 3.64558 2.05817 1.97394Z" fill="#B4B1B7"/>
</svg>
