<svg width="20" height="20" viewBox="0 0 20 20" fill="none" xmlns="http://www.w3.org/2000/svg">
<path d="M9.08751 6.19649C9.58351 6.69249 10.4155 6.69249 10.9115 6.19649C11.4075 5.70049 11.4075 4.86849 10.9115 4.37249C10.4155 3.87649 9.58351 3.87649 9.08751 4.37249C8.59151 4.86849 8.59151 5.70049 9.08751 6.19649ZM9.00751 15.1685C9.00751 15.4446 9.23137 15.6685 9.50751 15.6685H10.4915C10.7677 15.6685 10.9915 15.4446 10.9915 15.1685V8.10449C10.9915 7.82835 10.7677 7.60449 10.4915 7.60449H9.50751C9.23137 7.60449 9.00751 7.82835 9.00751 8.10449V15.1685Z" fill="url(#paint0_linear_102_923)"/>
<path fill-rule="evenodd" clip-rule="evenodd" d="M9.99951 18.2505C14.5559 18.2505 18.2495 14.5568 18.2495 10.0005C18.2495 5.44414 14.5559 1.75049 9.99951 1.75049C5.44316 1.75049 1.74951 5.44414 1.74951 10.0005C1.74951 14.5568 5.44316 18.2505 9.99951 18.2505ZM9.99951 20.0005C15.5224 20.0005 19.9995 15.5233 19.9995 10.0005C19.9995 4.47764 15.5224 0.000488281 9.99951 0.000488281C4.47666 0.000488281 -0.000488281 4.47764 -0.000488281 10.0005C-0.000488281 15.5233 4.47666 20.0005 9.99951 20.0005Z" fill="url(#paint1_linear_102_923)"/>
<defs>
<linearGradient id="paint0_linear_102_923" x1="-0.000488281" y1="0.000488281" x2="20.789" y2="20.0005" gradientUnits="userSpaceOnUse">
<stop stop-color="#8E3BF7"/>
<stop offset="1" stop-color="#3BE4F2"/>
</linearGradient>
<linearGradient id="paint1_linear_102_923" x1="-0.000488281" y1="0.000488281" x2="20.789" y2="20.0005" gradientUnits="userSpaceOnUse">
<stop stop-color="#8E3BF7"/>
<stop offset="1" stop-color="#3BE4F2"/>
</linearGradient>
</defs>
</svg>
