<svg width="20" height="19" viewBox="0 0 20 19" fill="none" xmlns="http://www.w3.org/2000/svg">
<path fill-rule="evenodd" clip-rule="evenodd" d="M0.5 2C0.5 1.17157 1.17157 0.5 2 0.5H18.5C19.3284 0.5 20 1.17157 20 2C20 2.82843 19.3284 3.5 18.5 3.5H2C1.17157 3.5 0.5 2.82843 0.5 2ZM6 9.5C6 8.67157 6.67157 8 7.5 8H18.5C19.3284 8 20 8.67157 20 9.5C20 10.3284 19.3284 11 18.5 11H7.5C6.67157 11 6 10.3284 6 9.5ZM0.5 17C0.5 16.1716 1.17157 15.5 2 15.5H18.5C19.3284 15.5 20 16.1716 20 17C20 17.8284 19.3284 18.5 18.5 18.5H2C1.17157 18.5 0.5 17.8284 0.5 17Z" fill="url(#paint0_linear_198_2)"/>
<defs>
<linearGradient id="paint0_linear_198_2" x1="0.5" y1="0.5" x2="19.2086" y2="19.998" gradientUnits="userSpaceOnUse">
<stop stop-color="#8E3BF7"/>
<stop offset="1" stop-color="#3BE4F2"/>
</linearGradient>
</defs>
</svg>
