<svg width="45" height="45" viewBox="0 0 45 45" fill="none" xmlns="http://www.w3.org/2000/svg">
<circle cx="22.5" cy="22.5" r="21" stroke="url(#paint0_linear_102_1031)" stroke-width="3"/>
<path d="M35 15.273C34.117 15.6589 33.168 15.9188 32.172 16.0359C33.189 15.4364 33.97 14.4865 34.337 13.3544C33.386 13.9096 32.332 14.3132 31.21 14.5308C30.313 13.5887 29.032 13 27.616 13C24.437 13 22.101 15.9198 22.819 18.9508C18.728 18.749 15.1 16.8195 12.671 13.887C11.381 16.0655 12.002 18.9153 14.194 20.3585C13.388 20.3329 12.628 20.1153 11.965 19.7521C11.911 21.9975 13.546 24.0983 15.914 24.5659C15.221 24.7509 14.462 24.7943 13.69 24.6486C14.316 26.5741 16.134 27.9749 18.29 28.0143C16.22 29.612 13.612 30.3257 11 30.0225C13.179 31.3977 15.768 32.2 18.548 32.2C27.69 32.2 32.855 24.5993 32.543 17.7823C33.505 17.0981 34.34 16.2446 35 15.273Z" fill="url(#paint1_linear_102_1031)"/>
<defs>
<linearGradient id="paint0_linear_102_1031" x1="0" y1="0" x2="46.7763" y2="45" gradientUnits="userSpaceOnUse">
<stop stop-color="#8E3BF7"/>
<stop offset="1" stop-color="#3BE4F2"/>
</linearGradient>
<linearGradient id="paint1_linear_102_1031" x1="11" y1="13" x2="30.6379" y2="36.6152" gradientUnits="userSpaceOnUse">
<stop stop-color="#8E3BF7"/>
<stop offset="1" stop-color="#3BE4F2"/>
</linearGradient>
</defs>
</svg>
