<svg width="16" height="17" viewBox="0 0 16 17" fill="none" xmlns="http://www.w3.org/2000/svg">
<path fill-rule="evenodd" clip-rule="evenodd" d="M1.09384 1.34387C1.8477 0.590012 3.06995 0.590012 3.82381 1.34387L8.24997 5.77003L12.6761 1.34387C13.43 0.590012 14.6522 0.590012 15.4061 1.34387C16.16 2.09773 16.16 3.31998 15.4061 4.07384L10.9799 8.5L15.4061 12.9262C16.16 13.68 16.16 14.9023 15.4061 15.6561C14.6522 16.41 13.43 16.41 12.6761 15.6561L8.24997 11.23L3.82381 15.6561C3.06995 16.41 1.8477 16.41 1.09384 15.6561C0.339977 14.9023 0.339977 13.68 1.09384 12.9262L5.51999 8.5L1.09384 4.07384C0.339977 3.31998 0.339977 2.09773 1.09384 1.34387Z" fill="url(#paint0_linear_198_7)"/>
<defs>
<linearGradient id="paint0_linear_198_7" x1="0.528442" y1="0.778477" x2="16.5811" y2="16.2215" gradientUnits="userSpaceOnUse">
<stop stop-color="#8E3BF7"/>
<stop offset="1" stop-color="#3BE4F2"/>
</linearGradient>
</defs>
</svg>
