<svg width="362" height="362" viewBox="0 0 362 362" fill="none" xmlns="http://www.w3.org/2000/svg">
<path d="M112.797 68.0061C50.5562 105.528 30.5164 186.407 68.0386 248.648C105.561 310.89 186.44 330.929 248.681 293.407C310.922 255.885 330.962 175.006 293.44 112.765C255.917 50.5236 175.039 30.4838 112.797 68.0061ZM135.472 207.996C118.377 179.64 119.806 146.553 137.407 128.74C139.842 126.271 142.576 124.117 145.545 122.327C170.545 107.256 206.569 121.174 226.007 153.417C245.444 185.66 240.934 224.015 215.933 239.086C208.681 243.458 200.511 245.404 192.07 245.142C171.431 244.543 149.271 230.886 135.472 207.996Z" fill="url(#paint0_linear_109_40)"/>
<path opacity="0.2" d="M252.588 218.691C229.064 253.1 196.467 246.216 192.07 245.142C200.511 245.404 208.681 243.458 215.933 239.086C240.934 224.015 245.444 185.66 226.007 153.417C206.569 121.174 170.545 107.256 145.545 122.327C142.576 124.117 139.842 126.271 137.407 128.74C152.337 101.73 204.798 88.1131 239.065 120.006C257.072 136.765 281.819 175.935 252.588 218.691Z" fill="url(#paint1_radial_109_40)"/>
<defs>
<linearGradient id="paint0_linear_109_40" x1="70.2266" y1="72.0235" x2="303.94" y2="305.737" gradientUnits="userSpaceOnUse">
<stop stop-color="#8E3BF7"/>
<stop offset="1" stop-color="#3BE4F2"/>
</linearGradient>
<radialGradient id="paint1_radial_109_40" cx="0" cy="0" r="1" gradientUnits="userSpaceOnUse" gradientTransform="translate(121.499 190.781) rotate(-13.3176) scale(174.246 126.802)">
<stop offset="0.620524"/>
<stop offset="0.828248" stop-opacity="0"/>
</radialGradient>
</defs>
</svg>
