<svg width="334" height="334" viewBox="0 0 334 334" fill="none" xmlns="http://www.w3.org/2000/svg">
<path d="M292.013 208.226C314.842 139.228 277.414 64.7829 208.416 41.9532C139.418 19.1235 64.9731 56.5522 42.1434 125.55C19.3137 194.548 56.7424 268.993 125.74 291.823C194.738 314.652 269.183 277.224 292.013 208.226ZM183.682 116.706C215.116 127.107 235.567 153.157 233.799 178.136C233.557 181.595 232.884 185.01 231.795 188.301C222.625 216.015 186.217 228.896 150.474 217.069C114.731 205.243 93.1914 173.189 102.361 145.475C105.021 137.435 109.957 130.64 116.536 125.345C132.595 112.366 158.307 108.311 183.682 116.706Z" fill="url(#paint0_linear_109_16)"/>
<path opacity="0.2" d="M87.8085 184.816C83.2718 143.382 112.499 127.392 116.536 125.345C109.957 130.641 105.021 137.435 102.361 145.475C93.1915 173.189 114.731 205.243 150.474 217.07C186.217 228.896 222.625 216.015 231.795 188.301C232.884 185.01 233.557 181.595 233.799 178.136C240.045 208.359 209.081 252.843 162.307 250.934C137.728 249.932 93.4459 236.302 87.8085 184.816Z" fill="url(#paint1_radial_109_16)"/>
<defs>
<linearGradient id="paint0_linear_109_16" x1="31.4592" y1="70.3023" x2="279.482" y2="296.861" gradientUnits="userSpaceOnUse">
<stop stop-color="#8E3BF7"/>
<stop offset="1" stop-color="#3BE4F2"/>
</linearGradient>
<radialGradient id="paint1_radial_109_16" cx="0" cy="0" r="1" gradientUnits="userSpaceOnUse" gradientTransform="translate(205.494 120.681) rotate(126.074) scale(174.246 126.802)">
<stop offset="0.620524"/>
<stop offset="0.828248" stop-opacity="0"/>
</radialGradient>
</defs>
</svg>
