<svg width="312" height="312" viewBox="0 0 312 312" fill="none" xmlns="http://www.w3.org/2000/svg">
<path d="M47.584 108.562C21.3853 168.37 48.6325 238.096 108.441 264.295C168.248 290.494 237.974 263.246 264.173 203.438C290.372 143.63 263.124 73.9045 203.316 47.7059C143.508 21.5072 73.7826 48.7544 47.584 108.562ZM136.824 199.498C109.577 187.562 93.4642 162.548 97.1376 140.352C97.6436 137.279 98.5317 134.28 99.7813 131.427C110.304 107.404 143.95 98.9309 174.933 112.503C205.915 126.074 222.499 156.551 211.976 180.574C208.923 187.542 203.939 193.207 197.611 197.393C182.159 207.658 158.819 209.133 136.824 199.498Z" fill="url(#paint0_linear_109_21)"/>
<path opacity="0.2" d="M228.288 146.601C228.876 184.044 201.393 195.9 197.611 197.393C203.939 193.207 208.923 187.542 211.976 180.573C222.499 156.551 205.915 126.074 174.933 112.502C143.95 98.9307 110.305 107.404 99.7815 131.427C98.5319 134.28 97.6437 137.278 97.1377 140.352C94.0815 112.794 125.504 75.5959 167.183 81.2191C189.086 84.1741 227.556 100.074 228.288 146.601Z" fill="url(#paint1_radial_109_21)"/>
<defs>
<linearGradient id="paint0_linear_109_21" x1="15.4588" y1="75.2188" x2="294.484" y2="232.618" gradientUnits="userSpaceOnUse">
<stop stop-color="#8E3BF7"/>
<stop offset="1" stop-color="#3BE4F2"/>
</linearGradient>
<radialGradient id="paint1_radial_109_21" cx="0" cy="0" r="1" gradientUnits="userSpaceOnUse" gradientTransform="translate(117.646 194.116) rotate(-48.5782) scale(156.547 113.922)">
<stop offset="0.620524"/>
<stop offset="0.828248" stop-opacity="0"/>
</radialGradient>
</defs>
</svg>
