<svg width="353" height="352" viewBox="0 0 353 352" fill="none" xmlns="http://www.w3.org/2000/svg">
<path d="M58.2877 233.275C89.9273 298.703 168.62 326.096 234.049 294.456C299.477 262.817 326.869 184.123 295.229 118.695C263.59 53.2673 184.897 25.8748 119.469 57.5144C54.0406 89.154 26.6481 167.847 58.2877 233.275ZM199.77 223.571C169.962 237.985 137.146 233.519 121.027 214.354C118.793 211.703 116.9 208.783 115.39 205.662C102.681 179.382 119.854 144.79 153.747 128.4C187.641 112.01 225.419 120.029 238.127 146.309C241.814 153.932 243 162.247 241.963 170.628C239.468 191.124 223.832 211.935 199.77 223.571Z" fill="url(#paint0_linear_109_34)"/>
<path opacity="0.2" d="M221.19 107.934C253.289 134.523 243.436 166.348 241.963 170.628C243 162.247 241.814 153.932 238.127 146.309C225.419 120.029 187.641 112.01 153.747 128.4C119.854 144.79 102.682 179.382 115.39 205.662C116.9 208.783 118.793 211.703 121.027 214.355C95.5047 197.004 86.7699 143.514 121.679 112.324C140.023 95.9347 181.303 74.8946 221.19 107.934Z" fill="url(#paint1_radial_109_34)"/>
<defs>
<linearGradient id="paint0_linear_109_34" x1="49.145" y1="74.3334" x2="301.937" y2="308.047" gradientUnits="userSpaceOnUse">
<stop stop-color="#8E3BF7"/>
<stop offset="1" stop-color="#3BE4F2"/>
</linearGradient>
<radialGradient id="paint1_radial_109_34" cx="0" cy="0" r="1" gradientUnits="userSpaceOnUse" gradientTransform="translate(181.343 235.901) rotate(-98.0412) scale(174.246 126.802)">
<stop offset="0.620524"/>
<stop offset="0.828248" stop-opacity="0"/>
</radialGradient>
</defs>
</svg>
