<svg width="367" height="367" viewBox="0 0 367 367" fill="none" xmlns="http://www.w3.org/2000/svg">
<path d="M109.044 291.935C169.055 332.93 250.941 317.513 291.935 257.501C332.929 197.49 317.512 115.604 257.501 74.6098C197.49 33.6154 115.604 49.0326 74.6095 109.044C33.6152 169.055 49.0324 250.941 109.044 291.935ZM226.918 213.087C208.242 240.428 177.558 252.891 154.038 244.293C150.781 243.106 147.684 241.516 144.822 239.56C120.717 223.094 118.39 184.546 139.627 153.458C160.863 122.37 197.619 110.519 221.723 126.985C228.716 131.761 233.883 138.382 237.156 146.167C245.196 165.185 241.994 191.018 226.918 213.087Z" fill="url(#paint0_linear_139_6)"/>
<path opacity="0.2" d="M187.93 102.134C229.006 109.215 236.303 141.721 237.156 146.167C233.883 138.382 228.715 131.761 221.723 126.985C197.619 110.519 160.863 122.37 139.627 153.458C118.39 184.546 120.717 223.095 144.821 239.561C147.684 241.516 150.78 243.106 154.038 244.293C123.265 241.951 89.0615 199.908 103.811 155.48C111.562 132.133 136.889 93.336 187.93 102.134Z" fill="url(#paint1_radial_139_6)"/>
<defs>
<linearGradient id="paint0_linear_139_6" x1="132.796" y1="35.8296" x2="220.416" y2="328.399" gradientUnits="userSpaceOnUse">
<stop stop-color="#8E3BF7"/>
<stop offset="1" stop-color="#3BE4F2"/>
</linearGradient>
<radialGradient id="paint1_radial_139_6" cx="0" cy="0" r="1" gradientUnits="userSpaceOnUse" gradientTransform="translate(217.075 232.954) rotate(-127.896) scale(174.246 126.802)">
<stop offset="0.620524"/>
<stop offset="0.828248" stop-opacity="0"/>
</radialGradient>
</defs>
</svg>
