<svg width="339" height="339" viewBox="0 0 339 339" fill="none" xmlns="http://www.w3.org/2000/svg">
<path d="M46.2661 215.287C71.4085 283.476 147.073 318.374 215.262 293.232C283.451 268.09 318.349 192.425 293.207 124.236C268.064 56.047 192.4 21.1489 124.211 46.2912C56.0219 71.4336 21.1237 147.098 46.2661 215.287ZM188.022 219.355C156.956 230.809 124.729 223.181 110.545 202.543C108.579 199.687 106.978 196.597 105.778 193.344C95.6793 165.955 116.126 133.193 151.451 120.168C186.775 107.144 223.596 118.79 233.695 146.179C236.624 154.124 236.998 162.515 235.153 170.755C230.681 190.913 213.099 210.109 188.022 219.355Z" fill="url(#paint0_linear_109_37)"/>
<path opacity="0.2" d="M220.56 106.342C249.929 135.92 237.035 166.639 235.153 170.755C236.998 162.515 236.624 154.124 233.695 146.179C223.596 118.79 186.775 107.144 151.451 120.168C116.126 133.193 95.6793 165.955 105.778 193.344C106.978 196.597 108.579 199.687 110.545 202.543C86.8266 182.798 83.3228 128.712 121.093 101.057C140.941 86.5243 184.067 69.5886 220.56 106.342Z" fill="url(#paint1_radial_109_37)"/>
<defs>
<linearGradient id="paint0_linear_109_37" x1="80.6693" y1="59.4339" x2="300.074" y2="278.839" gradientUnits="userSpaceOnUse">
<stop stop-color="#8E3BF7"/>
<stop offset="1" stop-color="#3BE4F2"/>
</linearGradient>
<radialGradient id="paint1_radial_109_37" cx="0" cy="0" r="1" gradientUnits="userSpaceOnUse" gradientTransform="translate(168.486 229.839) rotate(-92.4735) scale(174.246 126.802)">
<stop offset="0.620524"/>
<stop offset="0.828248" stop-opacity="0"/>
</radialGradient>
</defs>
</svg>
